<svg width="23" height="23" xmlns="http://www.w3.org/2000/svg" xmlns:xlink="http://www.w3.org/1999/xlink" xml:space="preserve" overflow="hidden"><g transform="translate(-449 -265)"><g><g><g><g><path d="M456.188 281.125C456.188 282.011 455.469 282.729 454.583 282.729 453.697 282.729 452.979 282.011 452.979 281.125 452.979 280.239 453.697 279.521 454.583 279.521 455.469 279.521 456.188 280.239 456.188 281.125Z" fill="#FFFFFF" fill-rule="nonzero" fill-opacity="1"/><path d="M469.479 281.125C469.479 282.011 468.761 282.729 467.875 282.729 466.989 282.729 466.271 282.011 466.271 281.125 466.271 280.239 466.989 279.521 467.875 279.521 468.761 279.521 469.479 280.239 469.479 281.125Z" fill="#FFFFFF" fill-rule="nonzero" fill-opacity="1"/><path d="M450.917 271.5 463.75 271.5 463.75 277 450.917 277Z" fill="#FFFFFF" fill-rule="nonzero" fill-opacity="1"/><path d="M465.583 273.792 466.958 273.792C467.371 273.792 467.737 274.067 467.829 274.456L468.288 276.038C468.288 276.06 468.31 276.06 468.31 276.083L465.583 276.083 465.583 273.792ZM466.958 272.875 464.667 272.875 464.667 276.083 464.667 277.458 464.667 281.125 465.583 281.125C465.583 279.865 466.615 278.833 467.875 278.833 469.135 278.833 470.167 279.865 470.167 281.125 470.671 281.125 471.083 280.712 471.083 280.208L471.083 277.917C471.083 277.619 470.946 277.367 470.717 277.183L469.502 276.267C469.342 276.152 469.227 275.969 469.181 275.785L468.723 274.204C468.494 273.425 467.76 272.875 466.958 272.875Z" fill="#FFFFFF" fill-rule="nonzero" fill-opacity="1"/><path d="M463.75 281.125 456.875 281.125C456.875 279.865 455.844 278.833 454.583 278.833 453.323 278.833 452.292 279.865 452.292 281.125L450.917 281.125 450.917 277.917 463.75 277.917 463.75 281.125Z" fill="#FFFFFF" fill-rule="nonzero" fill-opacity="1"/></g></g></g></g></g></svg>