<svg width="23" height="23" xmlns="http://www.w3.org/2000/svg" xmlns:xlink="http://www.w3.org/1999/xlink" xml:space="preserve" overflow="hidden"><g transform="translate(-170 -265)"><g><g><g><g><path d="M178.104 273.104 175.583 273.104 175.583 271.5 178.104 271.5 178.104 273.104ZM181.542 271.5 181.542 273.104 179.021 273.104 179.021 271.5 181.542 271.5ZM184.979 271.5 184.979 273.104 182.458 273.104 182.458 271.5 184.979 271.5ZM188.417 271.5 188.417 273.104 185.896 273.104 185.896 271.5 188.417 271.5ZM188.417 275.625 185.896 275.625 185.896 274.021 188.417 274.021 188.417 275.625ZM188.417 277.573 185.896 277.802 185.896 276.542 188.417 276.542 188.417 277.573ZM178.104 276.542 178.104 278.49 175.583 278.719 175.583 276.542 178.104 276.542ZM178.104 275.625 175.583 275.625 175.583 274.021 178.104 274.021 178.104 275.625ZM181.542 275.625 179.021 275.625 179.021 274.021 181.542 274.021 181.542 275.625ZM182.458 275.625 182.458 274.021 184.979 274.021 184.979 275.625 182.458 275.625ZM181.542 278.192 179.021 278.421 179.021 276.542 181.542 276.542 181.542 278.192ZM182.458 276.542 184.979 276.542 184.979 277.871 182.458 278.1 182.458 276.542ZM189.792 278.833 189.792 270.125 175.583 270.125 175.583 269.896C175.583 268.75 174.667 267.833 173.521 267.833 173.131 267.833 172.833 268.131 172.833 268.521 172.833 268.91 173.131 269.208 173.521 269.208 173.91 269.208 174.208 269.506 174.208 269.896L174.208 281.354C174.208 282.5 175.125 283.417 176.271 283.417L176.958 283.417 187.042 283.417 189.104 283.417C189.494 283.417 189.792 283.119 189.792 282.729 189.792 282.34 189.494 282.042 189.104 282.042L176.271 282.042C175.881 282.042 175.583 281.744 175.583 281.354L175.583 280.094 189.792 278.833Z" fill="#FFFFFF" fill-rule="nonzero" fill-opacity="1"/><path d="M178.333 284.792C178.333 285.551 177.718 286.167 176.958 286.167 176.199 286.167 175.583 285.551 175.583 284.792 175.583 284.032 176.199 283.417 176.958 283.417 177.718 283.417 178.333 284.032 178.333 284.792Z" fill="#FFFFFF" fill-rule="nonzero" fill-opacity="1"/><path d="M188.417 284.792C188.417 285.551 187.801 286.167 187.042 286.167 186.282 286.167 185.667 285.551 185.667 284.792 185.667 284.032 186.282 283.417 187.042 283.417 187.801 283.417 188.417 284.032 188.417 284.792Z" fill="#FFFFFF" fill-rule="nonzero" fill-opacity="1"/></g></g></g></g></g></svg>