<svg width="24" height="24" xmlns="http://www.w3.org/2000/svg" xmlns:xlink="http://www.w3.org/1999/xlink" xml:space="preserve" overflow="hidden"><g transform="translate(-309 -368)"><g><g><g><g><path d="M330.341 379.088C330.007 374.578 326.42 370.992 321.91 370.659 319.386 370.47 316.899 371.35 315.055 373.083 311.377 376.505 311.17 382.262 314.593 385.94 315.18 386.571 315.854 387.115 316.595 387.556 317.998 388.395 319.815 387.937 320.654 386.533 320.928 386.074 321.073 385.55 321.073 385.015 321.073 384.073 321.107 383.596 321.278 383.145 322.392 383.074 323.392 382.439 323.932 381.462L323.932 381.462C325.36 378.968 324.291 376.61 322.791 374.149 322.791 374.149 320.854 376.213 319.352 377.067 317.803 378.01 317.312 380.029 318.255 381.578 318.255 381.578 318.256 381.579 318.256 381.579 318.507 381.989 318.846 382.338 319.248 382.601 319.567 381.224 320.047 379.889 320.678 378.624 320.756 378.479 320.938 378.424 321.084 378.503 321.229 378.581 321.283 378.763 321.205 378.909 321.2 378.917 320.998 379.296 320.727 379.961 320.334 381.015 320.026 382.099 319.804 383.202 319.804 383.204 319.77 383.391 319.756 383.479 319.694 383.839 319.664 384.204 319.669 384.57 319.669 385.609 319.347 386.065 318.863 386.339 318.389 386.613 317.803 386.606 317.335 386.322 313.7 384.157 312.509 379.456 314.674 375.822 315.046 375.197 315.505 374.629 316.038 374.133 317.591 372.673 319.686 371.933 321.811 372.092 326.03 372.39 329.209 376.053 328.91 380.272 328.849 381.127 328.646 381.966 328.308 382.753 327.24 382.124 325.882 382.296 325.005 383.172L323.721 384.454 324.362 385.095 323.336 386.121C323.128 386.337 323.135 386.682 323.352 386.89 323.563 387.092 323.895 387.092 324.106 386.89L325.131 385.864 326.157 386.89 325.131 387.916C324.919 388.128 324.919 388.472 325.131 388.685 325.344 388.897 325.688 388.897 325.9 388.685L326.926 387.659 327.567 388.3 328.849 387.018C329.674 386.193 329.88 384.933 329.361 383.887 330.12 382.407 330.459 380.747 330.341 379.088Z" fill="#FFFFFF" fill-rule="nonzero" fill-opacity="1"/></g></g></g></g></g></svg>