<svg width="46" height="46" xmlns="http://www.w3.org/2000/svg" xmlns:xlink="http://www.w3.org/1999/xlink" xml:space="preserve" overflow="hidden"><g transform="translate(-100 -148)"><g><g><g><g><path d="M123.5 153.688C113.656 153.688 105.688 161.656 105.688 171.5 105.688 181.344 113.656 189.312 123.5 189.312 133.344 189.312 141.312 181.344 141.312 171.5 141.312 161.656 133.344 153.688 123.5 153.688ZM123.5 156.5C131.75 156.5 138.5 163.25 138.5 171.5 138.5 179.75 131.75 186.5 123.5 186.5 115.25 186.5 108.5 179.75 108.5 171.5 108.5 163.25 115.25 156.5 123.5 156.5" fill="#3D585F" fill-rule="nonzero" fill-opacity="1"/><path d="M116.188 178.812 126.5 174.594 130.719 164.281 120.406 168.594 116.188 178.812ZM123.5 170.562C124.062 170.562 124.438 170.938 124.438 171.5 124.438 172.062 124.062 172.438 123.5 172.438 122.938 172.438 122.562 172.062 122.562 171.5 122.562 170.938 122.938 170.562 123.5 170.562" fill="#3D585F" fill-rule="nonzero" fill-opacity="1"/></g></g></g></g></g></svg>