<svg width="46" height="45" xmlns="http://www.w3.org/2000/svg" xmlns:xlink="http://www.w3.org/1999/xlink" xml:space="preserve" overflow="hidden"><g transform="translate(-100 -260)"><g><g><g><g><path d="M126.84 287.342 126.741 287.342C125.796 290.164 123.946 291.574 121.19 291.574 119.54 291.625 117.962 290.891 116.938 289.595 115.862 288.277 115.324 286.502 115.324 284.271 115.324 281.318 116.062 278.865 117.538 276.912 118.876 275.026 121.063 273.927 123.374 273.979 124.254 273.967 125.115 274.232 125.835 274.737 126.497 275.164 126.991 275.807 127.232 276.557L127.291 276.557C127.331 276.19 127.429 275.435 127.587 274.294L130.854 274.294C130.238 281.221 129.93 284.75 129.93 284.881 129.93 287.479 130.606 288.779 131.958 288.779 133.19 288.779 134.214 288.054 135.028 286.603 135.842 285.153 136.248 283.273 136.247 280.964 136.247 277.552 135.148 274.767 132.95 272.608 130.751 270.45 127.705 269.37 123.809 269.37 120.292 269.276 116.906 270.704 114.518 273.288 112.064 275.898 110.837 279.165 110.837 283.09 110.837 286.962 112.018 290.085 114.38 292.46 116.741 294.834 119.924 296.022 123.927 296.022 126.71 296.097 129.475 295.544 132.016 294.406L132.016 297.438C129.72 298.408 126.853 298.894 123.415 298.895 118.585 298.895 114.695 297.451 111.743 294.564 108.791 291.677 107.314 287.898 107.313 283.228 107.313 278.425 108.875 274.442 111.998 271.28 115.121 268.117 119.11 266.535 123.966 266.536 128.519 266.536 132.289 267.861 135.274 270.512 138.259 273.163 139.752 276.621 139.752 280.886 139.752 284.009 138.942 286.572 137.321 288.573 135.7 290.575 133.722 291.575 131.387 291.573 128.368 291.573 126.852 290.163 126.84 287.342ZM123.71 276.771C122.266 276.771 121.102 277.48 120.216 278.897 119.281 280.501 118.82 282.338 118.887 284.194 118.822 285.38 119.136 286.555 119.783 287.55 120.32 288.339 121.22 288.803 122.174 288.781 123.617 288.781 124.759 288.036 125.599 286.546 126.439 285.057 126.86 283.084 126.86 280.63 126.86 278.058 125.81 276.772 123.71 276.771Z" fill="#3D585F" fill-rule="nonzero" fill-opacity="1"/></g></g></g></g></g></svg>