<svg width="24" height="23" xmlns="http://www.w3.org/2000/svg" xmlns:xlink="http://www.w3.org/1999/xlink" xml:space="preserve" overflow="hidden"><g transform="translate(-309 -265)"><g><g><g><g><path d="M15.8125 15.125 15.8125 10.9594 10.3526 13.7906 10.3526 10.9594 4.89317 13.7906 4.28542 5.5 2.66887 5.5 2.0625 13.7906 2.0625 19.25 19.9375 19.25 19.9375 15.125ZM6.10638 17.8344 3.67996 17.8344 3.67996 16.0146 6.10638 16.0146ZM10.1505 17.8344 7.72406 17.8344 7.72406 16.0146 10.1505 16.0146ZM14.1946 17.8344 11.7682 17.8344 11.7682 16.0146 14.1946 16.0146Z" fill="#FFFFFF" fill-rule="nonzero" fill-opacity="1" transform="matrix(1.04545 0 0 1 310 266)"/><path d="M7.15 3.31994C6.98317 3.47412 6.72581 3.47412 6.55898 3.31994 6.20631 2.98978 5.73946 2.80908 5.2564 2.81577L5.08613 2.81921C3.97043 2.79006 3.04116 3.6685 3.00758 4.78408L3.00758 5.04167 3.938 5.04167 3.938 4.89317C3.92833 4.39067 4.3216 3.97237 4.82373 3.95106L4.95 3.94167C5.33202 3.89384 5.71567 4.01722 5.99821 4.27877L6.65752 4.90348C6.99501 5.21696 7.45236 5.36782 7.91015 5.31667 7.93788 5.60148 8.0682 5.86651 8.27681 6.06238 8.82422 6.54809 9.65305 6.53143 10.1805 6.0241 10.2595 5.94919 10.3291 5.86502 10.3879 5.7734 10.9818 5.94619 11.6229 5.79189 12.0732 5.36777 12.69 4.82339 12.7487 3.88206 12.2043 3.26526 12.1781 3.23567 12.1509 3.20712 12.1225 3.17969 11.4571 2.58901 10.4494 2.60897 9.80788 3.22552 9.63951 3.37732 9.38362 3.37732 9.21525 3.22552 8.65945 2.71178 7.80205 2.71178 7.24625 3.22552Z" fill="#FFFFFF" fill-rule="nonzero" fill-opacity="1" transform="matrix(1.04545 0 0 1 310 266)"/></g></g></g></g></g></svg>