<svg width="23" height="23" xmlns="http://www.w3.org/2000/svg" xmlns:xlink="http://www.w3.org/1999/xlink" xml:space="preserve" overflow="hidden"><g transform="translate(-449 -368)"><g><g><g><g><path d="M11.0642 18.3333C12.069 17.54 13.0277 16.69 13.9356 15.7873 15.2517 14.5334 16.4155 13.1289 17.4029 11.6027 18.3196 10.1269 19.195 8.21104 18.5923 6.46021 18.1042 5.01188 16.7498 3.78125 15.1938 3.63229 13.2275 3.4375 11.8044 5.10125 11 6.69396 10.2644 5.23646 9.0475 3.73313 7.28979 3.62313 5.72917 3.52688 4.27625 4.62458 3.60479 5.98812 2.76375 7.7 3.44896 9.625 4.33354 11.1627 5.25021 12.7669 6.46938 14.1763 7.75729 15.4802 8.77257 16.5189 9.85586 17.4889 11 18.3838ZM7.33333 10.5417 8.02083 8.47917 8.42875 7.25313C8.53417 6.93458 8.69688 6.50833 9.13688 6.69167 9.40271 6.80396 9.41875 7.07896 9.46458 7.31958L9.65479 8.33479 10.2048 11.2681 10.5692 13.216 11.8983 9.70063 12.1917 8.92604C12.2765 8.69688 12.3635 8.46771 12.65 8.4425 13.0144 8.40583 13.1221 8.7175 13.2023 8.9925L13.4842 9.95958 14.0433 11.8823 14.5956 11.275C14.7723 11.0438 14.9711 10.8305 15.1892 10.6379 15.4183 10.4775 15.8423 10.5508 16.1058 10.5508L16.9583 10.5508C16.7888 10.8556 16.6008 11.1627 16.3969 11.4675L15.6521 11.4675C15.164 12.006 14.6965 12.579 14.1785 13.09 14.0161 13.2841 13.727 13.3098 13.5329 13.1474 13.4947 13.1154 13.462 13.0775 13.436 13.035 13.3862 12.9364 13.35 12.8316 13.3283 12.7233L12.9456 11.4148 12.634 10.3423C12.0496 11.8846 11.4881 13.4292 10.8854 14.9646 10.8517 15.0897 10.7786 15.2006 10.6769 15.2808 10.4682 15.4242 10.1829 15.3712 10.0396 15.1626 10.003 15.1093 9.97805 15.0488 9.96646 14.9852 9.91375 14.7744 9.88625 14.5544 9.845 14.3435L9.26521 11.2498 8.83208 8.9375 8.18583 10.8785C8.08729 11.1673 8.00938 11.4492 7.63813 11.4675 7.30125 11.4835 6.96208 11.4675 6.6275 11.4675L5.59625 11.4675C5.39458 11.1627 5.20437 10.8556 5.03479 10.5508Z" fill="#FFFFFF" fill-rule="nonzero" fill-opacity="1" transform="matrix(1 0 0 1.04545 450 368)"/></g></g></g></g></g></svg>