<svg width="23" height="24" xmlns="http://www.w3.org/2000/svg" xmlns:xlink="http://www.w3.org/1999/xlink" xml:space="preserve" overflow="hidden"><g transform="translate(-170 -368)"><g><g><g><g><path d="M3.4375 6.40521C3.89256 6.40461 4.30414 6.13477 4.48617 5.71771L5.5 5.71771C5.75314 5.71771 5.95833 5.9229 5.95833 6.17604L5.95833 9.18637C6.19211 9.10026 6.43592 9.04441 6.68388 9.02023 6.72843 8.81597 6.79241 8.61646 6.875 8.4244L6.875 6.17604C6.87411 5.41702 6.25902 4.80194 5.5 4.80104L4.48617 4.80104C4.23303 4.22104 3.55765 3.95608 2.97765 4.2092 2.39766 4.46233 2.13269 5.13771 2.38583 5.71771 2.56829 6.13578 2.98134 6.4058 3.4375 6.40521Z" fill="#FFFFFF" fill-rule="nonzero" fill-opacity="1" transform="matrix(1 0 0 1.04545 171 368)"/><path d="M4.32896 13.115C4.31865 13.0937 4.3104 13.0721 4.30077 13.051L2.52083 13.051C2.2677 13.051 2.0625 12.8458 2.0625 12.5927L2.0625 11.3497C2.6425 11.0966 2.90746 10.4212 2.65435 9.8412 2.40121 9.2612 1.72583 8.99624 1.14583 9.24935 0.565838 9.50249 0.300861 10.1779 0.553992 10.7579 0.669584 11.0227 0.880981 11.2341 1.14583 11.3497L1.14583 12.5927C1.14672 13.3517 1.76181 13.9668 2.52083 13.9677L4.95596 13.9677C4.69574 13.7249 4.48312 13.4357 4.32896 13.115Z" fill="#FFFFFF" fill-rule="nonzero" fill-opacity="1" transform="matrix(1 0 0 1.04545 171 368)"/><path d="M10.0833 3.55804 10.0833 6.41254C10.3949 6.42391 10.7034 6.47836 11 6.57433L11 3.55804C11.58 3.3049 11.845 2.62953 11.5918 2.04953 11.3387 1.46954 10.6633 1.20456 10.0833 1.45769 9.50334 1.71083 9.23837 2.3862 9.49149 2.9662 9.60708 3.23104 9.81849 3.44245 10.0833 3.55804Z" fill="#FFFFFF" fill-rule="nonzero" fill-opacity="1" transform="matrix(1 0 0 1.04545 171 368)"/><path d="M14.7263 8.22708C14.7849 8.26833 14.8408 8.31279 14.8958 8.35771L14.8958 7.55104C14.8958 7.2979 15.101 7.09271 15.3542 7.09271L16.7292 7.09271C17.4882 7.09181 18.1033 6.47673 18.1042 5.71771L18.1042 5.39138C18.6842 5.13824 18.9491 4.46286 18.696 3.88286 18.4429 3.30286 17.7675 3.0379 17.1875 3.29102 16.6075 3.54415 16.3425 4.21953 16.5957 4.79953 16.7112 5.06438 16.9227 5.27578 17.1875 5.39138L17.1875 5.71771C17.1875 5.97085 16.9823 6.17604 16.7292 6.17604L15.3542 6.17604C14.5951 6.1768 13.9799 6.79197 13.9792 7.55104L13.9792 7.85262C14.2449 7.94081 14.4966 8.06694 14.7263 8.22708Z" fill="#FFFFFF" fill-rule="nonzero" fill-opacity="1" transform="matrix(1 0 0 1.04545 171 368)"/><path d="M7.79167 14.7602 7.79167 15.3427C7.79167 15.5958 7.58647 15.801 7.33333 15.801L5.95833 15.801C5.19926 15.8018 4.58409 16.417 4.58333 17.176L4.58333 17.5024C4.00334 17.7555 3.73837 18.4309 3.99149 19.0109 4.24463 19.5909 4.92 19.8558 5.5 19.6027 6.08 19.3496 6.34496 18.6742 6.09185 18.0942 5.97625 17.8293 5.76485 17.618 5.5 17.5024L5.5 17.176C5.5 16.9229 5.7052 16.7177 5.95833 16.7177L7.33333 16.7177C8.09236 16.7168 8.70744 16.1017 8.70833 15.3427L8.70833 14.7602Z" fill="#FFFFFF" fill-rule="nonzero" fill-opacity="1" transform="matrix(1 0 0 1.04545 171 368)"/><path d="M20.3958 9.84271C19.9408 9.8433 19.5292 10.1131 19.3472 10.5302L17.0754 10.5302C17.3544 10.7829 17.5713 11.0966 17.7091 11.4469L19.3472 11.4469C19.6003 12.0269 20.2757 12.2918 20.8557 12.0387 21.4357 11.7856 21.7006 11.1102 21.4475 10.5302 21.2651 10.1121 20.852 9.84211 20.3958 9.84271Z" fill="#FFFFFF" fill-rule="nonzero" fill-opacity="1" transform="matrix(1 0 0 1.04545 171 368)"/><path d="M18.3333 16.0302C17.8783 16.0308 17.4667 16.3006 17.2847 16.7177L16.2708 16.7177C16.0177 16.7177 15.8125 16.5125 15.8125 16.2594L15.8125 14.7256C15.6816 14.7478 15.5491 14.7594 15.4163 14.7602L14.8958 14.7602 14.8958 16.2594C14.8967 17.0184 15.5118 17.6335 16.2708 17.6344L17.2847 17.6344C17.5378 18.2144 18.2132 18.4793 18.7932 18.2262 19.3732 17.9731 19.6381 17.2977 19.385 16.7177 19.2026 16.2996 18.7895 16.0296 18.3333 16.0302Z" fill="#FFFFFF" fill-rule="nonzero" fill-opacity="1" transform="matrix(1 0 0 1.04545 171 368)"/><path d="M12.1458 18.1899 12.1458 14.7602 11.2292 14.7602 11.2292 18.1899C10.6492 18.443 10.3842 19.1184 10.6373 19.6984 10.8905 20.2784 11.5658 20.5433 12.1458 20.2902 12.7258 20.0371 12.9908 19.3617 12.7377 18.7817 12.6221 18.5168 12.4107 18.3055 12.1458 18.1899Z" fill="#FFFFFF" fill-rule="nonzero" fill-opacity="1" transform="matrix(1 0 0 1.04545 171 368)"/><path d="M15.4163 10.5751C15.367 10.5739 15.3176 10.5763 15.2687 10.5825L15.2687 10.5751C15.2674 9.86294 14.9179 9.19639 14.3328 8.79038 13.7435 8.38076 12.9935 8.27851 12.3161 8.51538 11.7472 7.43781 10.5207 6.88245 9.33556 7.16581 8.15265 7.43916 7.31051 8.48662 7.29758 9.70063L7.29758 9.72354C6.48885 9.59516 5.67488 9.92074 5.17779 10.5715 4.68584 11.2177 4.59734 12.085 4.94863 12.8173 5.30496 13.5532 6.03763 14.033 6.8546 14.0656L7.5625 14.0729 15.4163 14.0729C16.3822 14.0839 17.1741 13.3099 17.1852 12.344 17.1962 11.3781 16.4222 10.5862 15.4563 10.5751 15.443 10.575 15.4296 10.575 15.4163 10.5751Z" fill="#FFFFFF" fill-rule="nonzero" fill-opacity="1" transform="matrix(1 0 0 1.04545 171 368)"/></g></g></g></g></g></svg>